<svg xmlns="http://www.w3.org/2000/svg" xmlns:xlink="http://www.w3.org/1999/xlink" width="36" height="36" viewBox="0 0 36 36">
  <defs>
    <clipPath id="clip-path">
      <rect id="Rectangle_1002" data-name="Rectangle 1002" width="36" height="36" transform="translate(522 1268)" fill="#a30041"/>
    </clipPath>
  </defs>
  <g id="Mask_Group_382" data-name="Mask Group 382" transform="translate(-522 -1268)" clip-path="url(#clip-path)">
    <path id="icons8-donate" d="M22.284,0C20.623,1.109,10.1,4.143,9.13,4.976s-4.976,6.782-4.976,8.308a47.205,47.205,0,0,0,2.9,8.74,8.016,8.016,0,0,1,3.462-4.716,6.093,6.093,0,0,0-.822-2.9c2.493-.552,3.894-3.462,3.894-3.462,1.8,1.66,5.928.563,5.928.563-1.109.692-4.154,4.976-4.154,4.976s-7.34,2.769-6.923,6.923a3.413,3.413,0,0,0,3.332,2.9c2.629,0,5.106-2.926,6.49-3.894s5.122-1.385,8.308-4.846C29.612,14.246,29.78,7.459,33.1,5.106,31.441,1.785,24.636,0,22.284,0ZM7.183,24.49a8.066,8.066,0,0,0-1.644,4.587A6.854,6.854,0,0,0,12.462,36a6.854,6.854,0,0,0,6.923-6.923,6.465,6.465,0,0,0-1.644-4.413c-1.525,1.385-3.618,3.029-5.971,3.029a4.828,4.828,0,0,1-3.894-2.077Z" transform="translate(521.373 1268)" fill="#a30041"/>
  </g>
</svg>
